<?xml version="1.0" encoding="iso-8859-1"?>
<!-- Uploaded to: SVG Repo, www.svgrepo.com, Generator: SVG Repo Mixer Tools -->
<svg height="64" width="64" version="1.1" id="Layer_1" xmlns="http://www.w3.org/2000/svg" xmlns:xlink="http://www.w3.org/1999/xlink" 
	 viewBox="0 0 512 512" xml:space="preserve">
<g transform="translate(1 1)">
	<g>
		<path style="fill:#15A143;" d="M379.587,229.4h-25.6c12.8,0,21.333,12.8,17.067,24.747l-7.68,17.92l0,0
			c-10.24,17.067-11.093,41.813-2.56,69.12l0,0c1.707,5.12,3.413,10.24,3.413,16.213v110.933c0,17.067-12.8,31.573-29.867,34.133
			c1.707,0,2.56,0.853,4.267,0.853h17.067c18.773,0,34.133-15.36,34.133-34.133V357.4c0-5.12-0.853-11.093-3.413-16.213l0,0
			c-8.533-27.307-6.827-51.2,2.56-69.12l0,0l6.827-17.92C400.92,242.2,392.387,229.4,379.587,229.4"/>
		<path style="fill:#15A143;" d="M406.04,7.533v77.653c0,22.187-2.56,44.373-7.68,65.707c-3.413,12.8-6.827,25.6-11.947,37.547
			l-17.067,41.813h11.093l23.893-41.813c6.827-11.947,11.947-23.893,16.213-37.547c6.827-21.333,10.24-43.52,10.24-65.707V7.533
			H406.04z"/>
	</g>
	<path style="fill:#FD9808;" d="M75.8,434.2h119.467v-68.267H75.8V434.2z"/>
	<path style="fill:#FFDD09;" d="M16.067,502.467h119.467V434.2H16.067V502.467z"/>
	<path style="fill:#FD9808;" d="M135.533,502.467H255V434.2H135.533V502.467z"/>
	<g>
		<path style="fill:#FFDD09;" d="M16.067,434.2H75.8v-68.267H16.067V434.2z"/>
		<path style="fill:#FFDD09;" d="M434.2,434.2h59.733v-68.267H434.2V434.2z"/>
		<path style="fill:#FFDD09;" d="M16.067,365.933h119.467v-68.267H16.067V365.933z"/>
	</g>
	<path style="fill:#FD9808;" d="M135.533,365.933H255v-68.267H135.533V365.933z"/>
	<g>
		<path style="fill:#FFDD09;" d="M16.067,297.667H75.8V229.4H16.067V297.667z"/>
		<path style="fill:#FFDD09;" d="M434.2,297.667h59.733V229.4H434.2V297.667z"/>
	</g>
	<path style="fill:#FD9808;" d="M75.8,297.667h119.467V229.4H75.8V297.667z"/>
	<path style="fill:#FFDD09;" d="M16.067,229.4h119.467v-68.267H16.067V229.4z"/>
	<path style="fill:#FD9808;" d="M135.533,229.4H255v-68.267H135.533V229.4z"/>
	<path style="fill:#FFDD09;" d="M16.067,161.133H75.8V92.867H16.067V161.133z"/>
	<path style="fill:#FD9808;" d="M75.8,161.133h119.467V92.867H75.8V161.133z"/>
	<g>
		<path style="fill:#FFDD09;" d="M306.2,442.733h25.6"/>
		<path style="fill:#FFDD09;" d="M306.2,408.6h25.6"/>
	</g>
	<path style="fill:#1CD759;" d="M372.76,229.4h-47.787l-17.067-41.813c-5.12-11.947-8.533-23.893-11.947-37.547
		c-5.12-21.333-7.68-43.52-7.68-65.707v-76.8h119.467v77.653c0,22.187-2.56,44.373-7.68,65.707
		c-3.413,12.8-6.827,25.6-11.947,37.547L372.76,229.4z"/>
	<path style="fill:#FFFFFF;" d="M296.813,150.04c-5.12-21.333-7.68-43.52-7.68-65.707v-76.8h-25.6v77.653
		c0,22.187,3.413,44.373,10.24,65.707c4.267,12.8,10.24,25.6,16.213,37.547l24.747,40.96h10.24l-17.067-41.813
		C303.64,175.64,299.373,162.84,296.813,150.04"/>
	<g>
		<path style="fill:#FFDD09;" d="M195.267,434.2H306.2v-68.267H195.267V434.2z"/>
		<path style="fill:#FFDD09;" d="M278.893,161.133H255V229.4h59.733l-23.893-41.813C285.72,179.053,282.307,170.52,278.893,161.133"
			/>
	</g>
	<path style="fill:#FD9808;" d="M382.147,229.4c12.8,0,21.333,12.8,17.067,24.747l-7.68,17.92l0,0
		c-4.267,7.68-6.827,16.213-7.68,25.6H434.2V229.4H382.147z"/>
	<g>
		<path style="fill:#FFDD09;" d="M306.2,272.067L306.2,272.067L299.373,255c-4.267-11.947,3.413-23.893,15.36-24.747l0,0H195.267
			v68.267h119.467C313.027,288.28,310.467,279.747,306.2,272.067"/>
		<path style="fill:#FFDD09;" d="M383.853,297.667c-1.707,12.8,0,28.16,5.12,43.52c1.707,5.12,3.413,10.24,3.413,16.213v8.533h102.4
			v-68.267H383.853z"/>
		<path style="fill:#FFDD09;" d="M306.2,357.4c0-5.12,0.853-11.093,3.413-16.213l0,0c4.267-16.213,5.973-30.72,5.12-43.52H255
			v68.267h51.2V357.4z"/>
	</g>
	<path style="fill:#FD9808;" d="M391.533,434.2H434.2v-68.267h-42.667V434.2z"/>
	<path style="fill:#FFDD09;" d="M306.2,468.333V434.2H255v68.267h85.333C321.56,502.467,306.2,487.107,306.2,468.333"/>
	<path style="fill:#1CD759;" d="M331.8,502.467c18.773,0,34.133-15.36,34.133-34.133V357.4c0-5.12-0.853-11.093-3.413-16.213l0,0
		c-8.533-27.307-6.827-51.2,2.56-69.12l0,0l6.827-17.92c5.12-11.947-4.267-24.747-17.067-24.747h-40.107
		c-12.8,0-22.187,12.8-17.067,25.6l6.827,17.067l0,0c10.24,17.92,11.093,40.107,2.56,69.12l0,0c0,5.12-0.853,10.24-0.853,16.213
		v110.933c0,18.773,15.36,34.133,34.133,34.133H331.8z"/>
	<path style="fill:#FD9808;" d="M391.533,434.2v34.133c0,18.773-15.36,34.133-34.133,34.133l0,0h136.533V434.2H391.533z"/>
	<path style="fill:#FFFFFF;" d="M16.067,502.467h25.6v-409.6h-25.6V502.467z"/>
	<path style="fill:#FD9808;" d="M468.333,502.467h25.6V229.4h-25.6V502.467z"/>
	<path d="M135.533,511H16.067c-5.12,0-8.533-3.413-8.533-8.533V434.2c0-5.12,3.413-8.533,8.533-8.533h119.467
		c5.12,0,8.533,3.413,8.533,8.533v68.267C144.067,507.587,140.653,511,135.533,511z M24.6,493.933H127v-51.2H24.6V493.933z"/>
	<path d="M255,511H135.533c-5.12,0-8.533-3.413-8.533-8.533V434.2c0-5.12,3.413-8.533,8.533-8.533H255
		c5.12,0,8.533,3.413,8.533,8.533v68.267C263.533,507.587,260.12,511,255,511z M144.067,493.933h102.4v-51.2h-102.4V493.933z"/>
	<path d="M75.8,442.733H16.067c-5.12,0-8.533-3.413-8.533-8.533v-68.267c0-5.12,3.413-8.533,8.533-8.533H75.8
		c5.12,0,8.533,3.413,8.533,8.533V434.2C84.333,439.32,80.92,442.733,75.8,442.733z M24.6,425.667h42.667v-51.2H24.6V425.667z"/>
	<path d="M493.933,442.733H434.2c-5.12,0-8.533-3.413-8.533-8.533v-68.267c0-5.12,3.413-8.533,8.533-8.533h59.733
		c5.12,0,8.533,3.413,8.533,8.533V434.2C502.467,439.32,499.053,442.733,493.933,442.733z M442.733,425.667H485.4v-51.2h-42.667
		V425.667z"/>
	<path d="M135.533,374.467H16.067c-5.12,0-8.533-3.413-8.533-8.533v-68.267c0-5.12,3.413-8.533,8.533-8.533h119.467
		c5.12,0,8.533,3.413,8.533,8.533v68.267C144.067,371.053,140.653,374.467,135.533,374.467z M24.6,357.4H127v-51.2H24.6V357.4z"/>
	<path d="M255,374.467H135.533c-5.12,0-8.533-3.413-8.533-8.533v-68.267c0-5.12,3.413-8.533,8.533-8.533H255
		c5.12,0,8.533,3.413,8.533,8.533v68.267C263.533,371.053,260.12,374.467,255,374.467z M144.067,357.4h102.4v-51.2h-102.4V357.4z"/>
	<path d="M75.8,306.2H16.067c-5.12,0-8.533-3.413-8.533-8.533V229.4c0-5.12,3.413-8.533,8.533-8.533H75.8
		c5.12,0,8.533,3.413,8.533,8.533v68.267C84.333,302.787,80.92,306.2,75.8,306.2z M24.6,289.133h42.667v-51.2H24.6V289.133z"/>
	<path d="M493.933,306.2H434.2c-5.12,0-8.533-3.413-8.533-8.533V229.4c0-5.12,3.413-8.533,8.533-8.533h59.733
		c5.12,0,8.533,3.413,8.533,8.533v68.267C502.467,302.787,499.053,306.2,493.933,306.2z M442.733,289.133H485.4v-51.2h-42.667
		V289.133z"/>
	<path d="M195.267,306.2H75.8c-5.12,0-8.533-3.413-8.533-8.533V229.4c0-5.12,3.413-8.533,8.533-8.533h119.467
		c5.12,0,8.533,3.413,8.533,8.533v68.267C203.8,302.787,200.387,306.2,195.267,306.2z M84.333,289.133h102.4v-51.2h-102.4V289.133z"
		/>
	<path d="M135.533,237.933H16.067c-5.12,0-8.533-3.413-8.533-8.533v-68.267c0-5.12,3.413-8.533,8.533-8.533h119.467
		c5.12,0,8.533,3.413,8.533,8.533V229.4C144.067,234.52,140.653,237.933,135.533,237.933z M24.6,220.867H127v-51.2H24.6V220.867z"/>
	<path d="M255,237.933H135.533c-5.12,0-8.533-3.413-8.533-8.533v-68.267c0-5.12,3.413-8.533,8.533-8.533H255
		c5.12,0,8.533,3.413,8.533,8.533V229.4C263.533,234.52,260.12,237.933,255,237.933z M144.067,220.867h102.4v-51.2h-102.4V220.867z"
		/>
	<path d="M75.8,169.667H16.067c-5.12,0-8.533-3.413-8.533-8.533V92.867c0-5.12,3.413-8.533,8.533-8.533H75.8
		c5.12,0,8.533,3.413,8.533,8.533v68.267C84.333,166.253,80.92,169.667,75.8,169.667z M24.6,152.6h42.667v-51.2H24.6V152.6z"/>
	<path d="M195.267,169.667H75.8c-5.12,0-8.533-3.413-8.533-8.533V92.867c0-5.12,3.413-8.533,8.533-8.533h119.467
		c5.12,0,8.533,3.413,8.533,8.533v68.267C203.8,166.253,200.387,169.667,195.267,169.667z M84.333,152.6h102.4v-51.2h-102.4V152.6z"
		/>
	<path d="M331.8,451.267h-25.6c-5.12,0-8.533-3.413-8.533-8.533c0-5.12,3.413-8.533,8.533-8.533h25.6
		c5.12,0,8.533,3.413,8.533,8.533C340.333,447.853,336.92,451.267,331.8,451.267z"/>
	<path d="M331.8,417.133h-25.6c-5.12,0-8.533-3.413-8.533-8.533c0-5.12,3.413-8.533,8.533-8.533h25.6
		c5.12,0,8.533,3.413,8.533,8.533C340.333,413.72,336.92,417.133,331.8,417.133z"/>
	<path d="M383,237.933h-68.267c-3.413,0-5.973-1.707-7.68-4.267l-23.893-41.813c-6.827-11.947-12.8-25.6-17.067-38.4
		C258.413,131.267,255,108.227,255,85.187V7.533C255,2.413,258.413-1,263.533-1H434.2c5.12,0,8.533,3.413,8.533,8.533v77.653
		c0,23.04-3.413,46.08-11.093,68.267c-4.267,13.653-10.24,26.453-17.067,38.4l-23.893,41.813
		C388.973,236.227,386.413,237.933,383,237.933z M319.853,220.867h58.027l21.333-37.547c6.827-11.093,11.947-23.04,16.213-35.84
		c6.827-20.48,10.24-40.96,10.24-62.293v-69.12h-153.6v69.12c0,21.333,3.413,42.667,10.24,62.293
		c4.267,11.947,9.387,24.747,16.213,35.84L319.853,220.867z"/>
	<path d="M306.2,442.733H195.267c-5.12,0-8.533-3.413-8.533-8.533v-68.267c0-5.12,3.413-8.533,8.533-8.533H306.2
		c5.12,0,8.533,3.413,8.533,8.533V434.2C314.733,439.32,311.32,442.733,306.2,442.733z M203.8,425.667h93.867v-51.2H203.8V425.667z"
		/>
	<path d="M314.733,237.933H255c-5.12,0-8.533-3.413-8.533-8.533v-68.267c0-5.12,3.413-8.533,8.533-8.533h23.04
		c3.413,0,6.827,1.707,7.68,5.12c4.267,10.24,7.68,17.92,11.947,25.6l23.893,41.813c1.707,2.56,1.707,5.973,0,8.533
		C320.707,236.227,318.147,237.933,314.733,237.933z M263.533,220.867h36.693l-17.067-29.013
		c-3.413-6.827-6.827-13.653-11.093-22.187h-8.533V220.867z"/>
	<path d="M434.2,306.2h-50.347c-2.56,0-5.12-0.853-5.973-2.56c-0.853-1.707-2.56-4.267-1.707-6.827
		c0.853-11.093,4.267-20.48,8.533-28.16l6.827-17.067c0.853-3.413,0.853-5.973-0.853-9.387c-1.707-2.56-5.12-4.267-7.68-4.267
		c-5.12,0-8.533-3.413-8.533-8.533c0-5.12,3.413-8.533,8.533-8.533h51.2c5.12,0,8.533,3.413,8.533,8.533v68.267
		C442.733,302.787,439.32,306.2,434.2,306.2z M394.093,289.133h31.573v-51.2h-18.773c2.56,5.973,2.56,13.653,0,19.627l-6.827,17.92
		c0,0,0,0.853-0.853,0.853C396.653,280.6,394.947,284.867,394.093,289.133z M391.533,272.067L391.533,272.067L391.533,272.067z"/>
	<path d="M314.733,306.2H195.267c-5.12,0-8.533-3.413-8.533-8.533V229.4c0-5.12,3.413-8.533,8.533-8.533h119.467
		c5.12,0,8.533,3.413,8.533,8.533c0,4.267-3.413,8.533-7.68,8.533c-3.413,0-5.973,1.707-7.68,4.267
		c-0.853,1.707-2.56,5.12-0.853,8.533l6.827,17.067c4.267,8.533,7.68,17.92,8.533,28.16c0,2.56-0.853,5.12-1.707,6.827
		C319.853,304.493,316.44,306.2,314.733,306.2z M203.8,289.133h99.84c-0.853-4.267-2.56-8.533-5.12-12.8c0,0,0,0,0-0.853l0,0
		l-6.827-17.92c-2.56-6.827-2.56-13.653,0-19.627H203.8V289.133z"/>
	<path d="M493.933,374.467h-102.4c-5.12,0-8.533-3.413-8.533-8.533V357.4c0-4.267-0.853-8.533-2.56-12.8
		c-5.12-17.067-6.827-33.28-5.12-47.787c0.853-4.267,4.267-7.68,8.533-7.68h110.08c5.12,0,8.533,3.413,8.533,8.533v68.267
		C502.467,371.053,499.053,374.467,493.933,374.467z M400.067,357.4H485.4v-51.2h-93.867c0,10.24,1.707,21.333,5.12,32.427
		C399.213,344.6,400.067,350.573,400.067,357.4L400.067,357.4z"/>
	<path d="M306.2,374.467H255c-5.12,0-8.533-3.413-8.533-8.533v-68.267c0-5.12,3.413-8.533,8.533-8.533h59.733
		c4.267,0,7.68,3.413,8.533,7.68c1.707,13.653,0,29.013-5.12,46.933v0.853c-2.56,4.267-3.413,8.533-3.413,12.8v8.533
		C314.733,371.053,311.32,374.467,306.2,374.467z M263.533,357.4h34.133c0-5.973,0.853-12.8,3.413-18.773
		c3.413-11.947,5.12-23.04,5.12-32.427h-42.667V357.4z"/>
	<path d="M434.2,442.733h-42.667c-5.12,0-8.533-3.413-8.533-8.533v-68.267c0-5.12,3.413-8.533,8.533-8.533H434.2
		c5.12,0,8.533,3.413,8.533,8.533V434.2C442.733,439.32,439.32,442.733,434.2,442.733z M400.067,425.667h25.6v-51.2h-25.6V425.667z"
		/>
	<path d="M340.333,511H255c-5.12,0-8.533-3.413-8.533-8.533V434.2c0-5.12,3.413-8.533,8.533-8.533h51.2
		c5.12,0,8.533,3.413,8.533,8.533v34.133c0,14.507,11.947,25.6,25.6,25.6c5.12,0,8.533,3.413,8.533,8.533
		C348.867,507.587,345.453,511,340.333,511z M263.533,493.933H306.2c-5.12-6.827-8.533-16.213-8.533-25.6v-25.6h-34.133V493.933z"/>
	<path d="M357.4,511h-17.067c-23.893,0-42.667-18.773-42.667-42.667V357.4c0-5.973,0.853-12.8,3.413-18.773
		c7.68-26.453,6.827-46.08-2.56-62.293c0,0-0.853-0.853-0.853-1.707l-6.827-17.067c-3.413-8.533-2.56-17.92,2.56-24.747
		c5.12-7.68,13.653-11.947,22.187-11.947h65.707c8.533,0,17.067,4.267,22.187,11.947s5.973,17.067,2.56,24.747l-6.827,17.92
		c0,0,0,0.853-0.853,0.853c-9.387,15.36-10.24,37.547-2.56,62.293c2.56,5.12,3.413,11.947,3.413,17.92V467.48
		C400.067,492.227,381.293,511,357.4,511z M316.44,237.933c-3.413,0-5.973,1.707-8.533,4.267c-1.707,2.56-2.56,5.973-0.853,9.387
		l6.827,17.067c11.093,19.627,11.947,43.52,3.413,75.093v0.853c-1.707,4.267-2.56,8.533-2.56,12.8v110.933
		c0,14.507,11.947,25.6,25.6,25.6H357.4c14.507,0,25.6-11.947,25.6-25.6V357.4c0-4.267-0.853-8.533-2.56-12.8
		c-9.387-29.867-7.68-57.173,3.413-75.947l6.827-17.067c0.853-3.413,0.853-5.973-0.853-9.387c-1.707-2.56-5.12-4.267-7.68-4.267
		H316.44z"/>
	<path d="M493.933,511H357.4c-5.12,0-8.533-3.413-8.533-8.533c0-5.12,3.413-8.533,8.533-8.533l0,0l0,0h0.853
		c13.653,0,24.747-11.947,24.747-25.6V434.2c0-5.12,3.413-8.533,8.533-8.533h102.4c5.12,0,8.533,3.413,8.533,8.533v68.267
		C502.467,507.587,499.053,511,493.933,511z M391.533,493.933H485.4v-51.2h-85.333v25.6
		C400.067,477.72,396.653,487.107,391.533,493.933z"/>
</g>
</svg>