<?xml version="1.0" encoding="iso-8859-1"?>
<!-- Uploaded to: SVG Repo, www.svgrepo.com, Generator: SVG Repo Mixer Tools -->
<svg height="64" width="64" version="1.1" id="Layer_1" xmlns="http://www.w3.org/2000/svg" xmlns:xlink="http://www.w3.org/1999/xlink" 
	 viewBox="0 0 390.788 390.788" xml:space="preserve">
<path style="fill:#FFFFFF;" d="M273.998,201.309V35.038c-51.459-17.325-105.697-17.325-157.156,0v166.271H273.998z"/>
<path style="fill:#56ACE0;" d="M252.277,201.309V51.329c-18.424-4.848-37.947-7.564-56.889-7.564s-38.465,2.715-56.889,7.564v149.98
	H252.277z"/>
<g>
	<path style="fill:#194F82;" d="M389.392,374.885l-93.737-177.778V26.958c0-4.331-2.715-8.663-7.046-10.279
		c-61.22-22.238-125.737-22.238-186.44,0c-4.331,1.616-7.046,5.43-7.046,10.279V196.59L1.384,374.885
		c-2.715,5.43-0.517,11.895,4.331,14.61c5.947,3.232,12.994-0.517,14.61-4.331l91.022-173.446h27.152
		c5.947,0,10.861-4.848,10.861-10.861s-4.848-10.861-10.861-10.861h-21.657V35.038c51.459-17.325,105.697-17.325,157.737,0v155.539
		h-22.756c-5.947,0-10.861,4.848-10.861,10.861c0,6.012,4.848,10.861,10.796,10.861h27.669l91.022,172.865
		c2.715,5.43,9.244,7.046,14.61,4.331C389.974,386.78,392.107,380.315,389.392,374.885z"/>
	<path style="fill:#194F82;" d="M195.388,255.095c-5.947,0-10.861,4.848-10.861,10.861v23.273c0,5.947,4.848,10.861,10.861,10.861
		c5.947,0,10.861-4.848,10.861-10.861v-23.273C206.249,260.008,201.335,255.095,195.388,255.095z"/>
	<path style="fill:#194F82;" d="M195.388,186.828c-5.947,0-10.861,4.848-10.861,10.861v23.273c0,5.947,4.848,10.861,10.861,10.861
		c5.947,0,10.861-4.848,10.861-10.861v-23.273C206.249,191.677,201.335,186.828,195.388,186.828z"/>
	<path style="fill:#194F82;" d="M195.388,117.98c-5.947,0-10.861,4.848-10.861,10.861v23.273c0,5.947,4.848,10.861,10.861,10.861
		c5.947,0,10.861-4.848,10.861-10.861V128.84C206.249,122.893,201.335,117.98,195.388,117.98z"/>
	<path style="fill:#194F82;" d="M195.388,323.943c-5.947,0-10.861,4.848-10.861,10.861v23.273c0,5.947,4.848,10.861,10.861,10.861
		c5.947,0,10.861-4.849,10.861-10.861v-23.273C206.249,328.792,201.335,323.943,195.388,323.943z"/>
</g>
</svg>